# xmcd
#
# Track frame offsets: 
#        150
#        12714
#        26519
#        45068
#        56114
#        76836
#        88907
#        104647
#        118953
#        134347
#
# Disc length: 1965 seconds
#
# Revision: 0
# Processed by: cddbd v1.5.2PL0 Copyright (c) Steve Scherf et al.
# Submitted via: ExactAudioCopy v0.99pb4
#
DISCID=8407ab0a
DTITLE=Various Artist - Bluegrass Christmas
DYEAR=2004
DGENRE=Christmas
TTITLE0=Various Artists/Jingle Bells
TTITLE1=Various Artists/Deck The Halls and We Wish You A Merry Christm
TTITLE1=as
TTITLE2=Various Artists/Angels We Have Heard On High
TTITLE3=Various Artists/Joy To The World
TTITLE4=Various Artists/Away In A Manger and The First Noel
TTITLE5=Various Artists/God Rest Ye Merry Gentlemen
TTITLE6=Various Artists/We Three Kings
TTITLE7=Various Artists/O Come All Ye Faithful
TTITLE8=Various Artists/Silent Night
TTITLE9=Various Artists/What Child Is This
EXTD=
EXTT0=
EXTT1=
EXTT2=
EXTT3=
EXTT4=
EXTT5=
EXTT6=
EXTT7=
EXTT8=
EXTT9=
PLAYORDER=
